<svg width="24" height="24" viewBox="0 0 24 24" fill="none" xmlns="http://www.w3.org/2000/svg">
<g clip-path="url(#clip0_326_20)">
<path fill-rule="evenodd" clip-rule="evenodd" d="M2.4 13.0021C2.40017 11.3083 2.93342 9.6505 3.93575 8.22763C4.93808 6.80477 6.36691 5.67729 8.05081 4.98049C9.7347 4.2837 11.6021 4.04717 13.429 4.29931C15.2559 4.55144 16.9646 5.28152 18.3501 6.40195C19.7357 7.52237 20.7392 8.98554 21.2402 10.6159C21.7412 12.2462 21.7185 13.9745 21.1748 15.5933C20.6311 17.2121 19.5895 18.6527 18.1749 19.7423C16.7604 20.8318 15.033 21.5239 13.2 21.7356V15.2026H15.6C15.9183 15.2026 16.2235 15.0867 16.4485 14.8803C16.6736 14.674 16.8 14.3941 16.8 14.1024C16.8 13.8106 16.6736 13.5307 16.4485 13.3244C16.2235 13.1181 15.9183 13.0021 15.6 13.0021H13.2V10.8017C13.2 10.5099 13.3264 10.2301 13.5515 10.0237C13.7765 9.81741 14.0817 9.7015 14.4 9.7015H15C15.3183 9.7015 15.6235 9.58558 15.8485 9.37925C16.0736 9.17292 16.2 8.89308 16.2 8.60128C16.2 8.30949 16.0736 8.02964 15.8485 7.82331C15.6235 7.61698 15.3183 7.50107 15 7.50107H14.4C13.4452 7.50107 12.5295 7.84881 11.8544 8.4678C11.1793 9.0868 10.8 9.92633 10.8 10.8017V13.0021H8.4C8.08174 13.0021 7.77652 13.1181 7.55147 13.3244C7.32643 13.5307 7.2 13.8106 7.2 14.1024C7.2 14.3941 7.32643 14.674 7.55147 14.8803C7.77652 15.0867 8.08174 15.2026 8.4 15.2026H10.8V21.7356C8.47994 21.4676 6.34633 20.4325 4.7997 18.8244C3.25308 17.2164 2.39978 15.1461 2.4 13.0021ZM12 24.0043C18.6276 24.0043 24 19.0786 24 13.0021C24 6.92566 18.6276 2 12 2C5.3724 2 0 6.92566 0 13.0021C0 19.0786 5.3724 24.0043 12 24.0043Z" fill="white"/>
</g>
<defs>
<clipPath id="clip0_326_20">
<rect width="24" height="24" fill="white"/>
</clipPath>
</defs>
</svg>
