<svg width="24" height="24" viewBox="0 0 24 24" fill="none" xmlns="http://www.w3.org/2000/svg">
<g clip-path="url(#clip0_326_24)">
<path fill-rule="evenodd" clip-rule="evenodd" d="M12 2C6.477 2 2 6.477 2 12C2 17.523 6.477 22 12 22C17.523 22 22 17.523 22 12C22 6.477 17.523 2 12 2ZM0 12C0 5.3725 5.3725 0 12 0C18.6275 0 24 5.3725 24 12C24 18.6275 18.6275 24 12 24C5.3725 24 0 18.6275 0 12Z" fill="white"/>
<path fill-rule="evenodd" clip-rule="evenodd" d="M9.59148 22.736C9.49482 22.611 9.49482 21.4987 9.59148 19.399C8.55582 19.435 7.90132 19.3632 7.62798 19.1835C7.21848 18.914 6.80798 18.0835 6.44448 17.498C6.08098 16.9125 5.27298 16.82 4.94698 16.689C4.62098 16.5585 4.53898 16.025 5.84548 16.428C7.15198 16.8315 7.21548 17.9305 7.62798 18.187C8.04048 18.444 9.02598 18.332 9.47248 18.126C9.91898 17.92 9.88598 17.154 9.96598 16.8505C10.0665 16.567 9.71148 16.504 9.70398 16.502C9.26748 16.502 6.97698 16.0035 6.34748 13.7855C5.71848 11.567 6.52898 10.117 6.96148 9.49403C7.24948 9.07803 7.22398 8.19236 6.88498 6.83703C8.11698 6.67903 9.06748 7.06669 9.73648 8.00003C9.73748 8.00503 10.6145 7.47853 12 7.47853C13.3855 7.47853 13.8775 7.90753 14.257 8.00003C14.6365 8.09253 14.94 6.36703 17.2835 6.83703C16.794 7.79853 16.3845 9.00003 16.697 9.49403C17.01 9.98753 18.237 11.5575 17.4835 13.7855C16.9805 15.2705 15.9923 16.176 14.519 16.502C14.3503 16.556 14.266 16.643 14.266 16.763C14.266 16.943 14.494 16.9625 14.823 17.806C15.043 18.368 15.059 19.9739 14.871 22.6235C14.3953 22.7445 14.0253 22.8259 13.761 22.8675C13.2925 22.941 12.7835 22.9825 12.2835 22.998C11.7835 23.014 11.61 23.0125 10.9185 22.948C10.4719 22.9072 10.0286 22.8364 9.59148 22.736Z" fill="white"/>
</g>
<defs>
<clipPath id="clip0_326_24">
<rect width="24" height="24" fill="white"/>
</clipPath>
</defs>
</svg>
